<svg width="1056" height="833" viewBox="0 0 1056 833" fill="none" xmlns="http://www.w3.org/2000/svg">
<path d="M241.944 205.464L164.861 393.993H0V145.296C0 49.4719 50.3494 0 146.592 0H908.962C1005.65 0 1056 49.9176 1056 145.296V393.993H870.643C851.484 393.993 840.79 403.352 834.552 420.288L806.481 499.176L709.347 204.573C700.435 176.94 659.443 176.94 647.858 205.464L570.775 393.993H464.729C445.57 393.993 434.876 403.352 428.638 420.288L400.567 499.176L303.433 204.573C294.522 176.94 253.529 176.94 241.944 205.464ZM146.592 833C50.3494 833 0 783.082 0 687.704V459.064H178.673C204.962 459.064 215.21 450.15 222.339 432.768L272.243 310.202L369.823 623.524C378.289 651.157 422.846 650.712 431.757 622.187L483.443 459.064H589.489C608.648 459.064 618.451 449.704 625.58 432.768L678.157 310.202L775.737 623.524C784.203 651.157 828.76 650.712 837.671 622.187L889.357 459.064H1056V687.704C1056 783.082 1005.65 833 908.962 833H146.592Z" fill="#FF6E00"/>
</svg>
